<svg width="80" height="80" viewBox="0 0 141 141" xmlns="http://www.w3.org/2000/svg"><defs><filter x="-50%" y="-50%" width="200%" height="200%" filterUnits="objectBoundingBox" id="logo-shadow"><feOffset dy="8" in="SourceAlpha" result="shadowOffsetOuter1"/><feGaussianBlur stdDeviation="4.5" in="shadowOffsetOuter1" result="shadowBlurOuter1"/><feColorMatrix values="0 0 0 0 0.976470588 0 0 0 0 0.925490196 0 0 0 0 0.192156863 0 0 0 0.5 0" in="shadowBlurOuter1" result="shadowMatrixOuter1"/><feMerge><feMergeNode in="shadowMatrixOuter1"/><feMergeNode in="SourceGraphic"/></feMerge></filter></defs><g filter="url(#logo-shadow)" transform="translate(9 1)" fill="none" fill-rule="evenodd"><path d="M122.696 85.09c0 20.77-16.837 37.608-37.608 37.608h-47.48C16.838 122.698 0 105.858 0 85.09V37.608C0 16.838 16.837 0 37.608 0h47.48c20.77 0 37.608 16.84 37.608 37.608V85.09z" fill="#F9EC31"/><path d="M48.813 106.872c.024-.138 2.37-13.574-1.612-21.85-2.557-5.31-5.63-6.358-10.284-7.944-2.382-.81-5.083-1.733-8.14-3.375-5.352-2.872-8.585-7.818-11.714-12.605l-.045-.07c-.356.272-.79.44-1.326.44-1.658 0-2.507-1.527-3.23-4.215-.206-.03-.42-.07-.64-.12-1.96-.437-3.486-1.793-4.296-3.822-1.11-2.78-.75-6.66.84-9.03 2.512-3.742 7.43-5.637 10.938-5.81.183-.01.362-.014.542-.014 2.613 0 4.73.915 6.597 1.72 1.078.466 2.095.907 2.955 1.033.286.04.57.053.853.053.683 0 1.396-.092 2.15-.19.855-.11 1.74-.224 2.696-.224.652 0 1.258.052 1.85.164 1.07.2 2.173.408 3.165.408.463 0 .863-.044 1.223-.136.616-.154 1.228-.347 1.843-.54 1.068-.33 2.17-.676 3.366-.882.485-.084.955-.123 1.415-.123 1.216 0 2.32.275 3.315.63.228-.365.462-.733.705-1.1-4.623-2.86-6.464-5.297-5.778-7.592.852-2.857 4.974-3.188 8-3.188 1.947 0 4.24.165 6.835.494l.044-.333c.486-3.965.63-11.58.634-11.656l.022-1.198 1.095-.49c.15-.063 3.7-1.605 10.69-1.605.512 0 1.043.01 1.593.026 8.19.26 13.62 1.948 13.848 2.02.177.047 5.646 1.622 12.635 5.896 6.862 4.198 9.295 7.91 9.394 8.065l.647 1.007-.637 1.012c-.042.064-4.095 6.51-5.866 10.094l-.163.338c10.732 5.282 11.28 8.39 10.712 10.292-.825 2.747-4.67 3.158-7.656 3.186 1.898 4.09 2.02 8.015.333 11.447l-.226.455c-.87 1.756-1.077 2.173-.702 3.82.265 1.144.658 2.27 1.075 3.463.433 1.24.883 2.522 1.193 3.877.03.125.122.44.243.872 1.59 5.615 1.88 6.838.586 7.802-.322.238-8.142 5.952-26.313 8.14-17.19 2.064-32.288 13.092-32.438 13.204l-3.805 2.808.838-4.652z" fill="#FFF"/><g transform="translate(8 15)"><path d="M74.108 22.463c7.834 2.346 14.798 4.967 19.823 7.358.364-1.156.855-2.49 1.52-3.832 1.835-3.715 5.96-10.263 5.96-10.263s-2.222-3.456-8.794-7.477c-6.85-4.19-12.22-5.71-12.22-5.71S75.078.862 67.053.607c-7.705-.246-11.458 1.42-11.458 1.42s-.143 7.747-.65 11.856c-.177 1.447-.484 2.8-.808 3.94 5.43.798 12.437 2.387 19.97 4.64z" fill="#3E295E"/><ellipse fill="#3E295E" transform="rotate(-73.357 72.94 27.063)" cx="72.94" cy="27.063" rx="6.594" ry="34.382"/><ellipse fill="#3E295E" transform="rotate(-73.357 72.472 27.945)" cx="72.472" cy="27.945" rx="3.719" ry="24.975"/><path d="M50.03 21.16c-.44.185-.866.4-1.272.656-2.228 1.4-3.362 3.75-4.733 5.896-1.708-.767-3.28-1.324-5.163-.998-1.75.305-3.392.97-5.068 1.394-1.653.418-3.496.07-5.197-.25-2.623-.49-4.964.568-7.472.208-2.812-.405-5.74-2.917-9.73-2.72-3.378.17-7.532 2.094-9.468 4.982-1.86 2.77-1.775 9.06 2.304 9.97 1.79.4 3.105-.133 4.275 1.56 3.862 5.586 7.09 11.93 13.16 15.187 8.942 4.804 14.925 3.22 19.23 12.16C45.2 78.144 42.663 92.2 42.663 92.2s15.45-11.41 33.332-13.56c17.88-2.15 25.413-7.78 25.413-7.78.38-.284-1.41-6.177-1.54-6.745-.574-2.502-1.69-4.84-2.267-7.343-.564-2.48.016-3.367 1.073-5.523 1.862-3.787.885-7.826-1.142-11.342-1.838-3.184-4.656-5.955-8.123-7.297-6.15-2.372-8.28-2.79-8.28-2.79s-.992-7.14-12.913-8.63c-4.424-.556-8.806-1.467-13.287-1.06-1.633.15-3.356.392-4.897 1.03z" fill="#3E295E"/><path d="M5.708 39.275S6.7 44.59 7.69 44.59c.99 0 1.547-5.315 1.547-5.315h-3.53z" fill="#3E295E"/><path d="M68.38 68.38c5.36-2.365 10.784-4.72 15.865-7.644 3.874-2.237 8.56-5.11 10.655-9.226 4.328-8.504-5.446-15.324-12.686-16.68-1.23-.228-10.463-1.398-10.805.698.335-2.08 2.627-3.01 3.728-4.612 1.726-2.506-.71-2.965-2.664-3.812-3.366-1.448-6.857-2.534-10.55-2.602-3.808-.068-6.987.36-9.84 3.166-.504.498-1.174 1.23-1.27 1.922-.283 2.05 3.812 2.685 4.982 1.954.686-.43 1.408-.795 2.143-1.125 2.1-.953 4.37-1.64 6.66-1.924 2.026-.25 4.123-.355 6.093.268.528.174 1.098.375 1.56.692.05.032.388.366.424.366h-3.305s-1.985 3.125-6.622 4.448c-4.637 1.325-10.866-1.323-10.866-1.323s-4.532-2.154-8.637-1.623c-4.103.53-5 0-5 0v1.953s-1.99-1.325-4.308-1.953c-2.32-.63-5.63-2.185-9.77-1.502-4.14.684-4.967.145-8.775-1.5-3.808-1.65-7.907-1.173-10.265 3.003-2.36 4.178.663 6.854.663 6.854l3.442.095c.757-.056 1.507-.092 2.21-.092.23-1.438.91-4.563 2.508-5.338 2.095-1.015 1.12 2.444 1.336 4.078.098.733.252 1.462.395 2.038 2.76 1.04 5.44 2.65 9.147 2.103 4.47-.665 9.272-3.762 13.578-1.385l.18.1c.417-.94 1.435-3 2.474-3.275 1.354-.353.11 1.865-.112 3.022-.097.518-.162 1.034-.205 1.454.463.25.92.5 1.378.732.288-1.104.842-2.77 1.662-3.166 1.26-.61.467 1.804.482 2.983 0 .432.03.865.06 1.235 2.168.926 4.31 1.462 6.496 1.11 4.14-.664 4.76-2.466 11.094.11 1.854.754 3.822 2.443 5.754 2.706 1.23.17 4.804-.047 4.68-1.93.056.844.697 1.182.234 2.137-.354.727-1.188 1.18-1.92 1.428-2.226.767-3.96-.562-5.974-1.314-2.22-.83-4.688-2.258-7.08-2.504-2.98-.3-6.954 1.69-10.928 1.025-3.973-.663-7.285-5.464-12.75-4.8-5.463.663-7.45 3.312-12.252 1.988-.738-.206-1.404-.427-2.03-.662-.04.17-.08.358-.113.595-.166 1.26.59 3.93-1.03 3.15-1.274-.618-1.79-3.75-1.952-5.062-1.83-.824-3.45-1.497-5.718-1.497-.362 0-.7.014-1.022.047 1.324 2.228 4.765 7.68 8.887 11.546 5.297 4.974 10.432 5.127 10.432 5.127s-1.656-1.324-3.147-2.48c-1.49-1.162-3.642-4.842-3.642-4.842s3.642 3.182 8.94 5.998c5.298 2.81 11.095 5.63 11.095 5.63s-.83-.166-2.815-.5c-1.99-.33-5.795-1.818-5.795-1.818s5.133 4.47 10.265 7.782c5.134 3.312 14.403 6.788 14.403 6.788s1.944-.612 9.94-4.137zM11.2 31c-1.708.515-3.252.404-3.45-.246-.194-.652 1.03-1.598 2.74-2.112 1.707-.514 3.25-.402 3.445.248.196.652-1.03 1.596-2.735 2.11z" fill="#F9EC31"/><path d="M56.874 15.81c-.032.17-.065.338-.1.508 5.36 1.235 11.19 2.783 17.26 4.616 6.674 2.02 12.93 4.165 18.465 6.298.07-.173.14-.35.22-.52-5.007-2.3-11.26-7.1-17.974-9.126-6.508-1.97-12.555-.913-17.872-1.776zM58.965 31.628s1.88 1.444 4.282.914c2.408-.528 4.285-2.31 4.285-2.31s-1.41-.26-3.202-.135c-.074.3-.173.637-.296.91-.285.637-.982.97-.982.97s-.19-.3-.332-1.094c-.037-.205-.04-.394-.03-.563-2.096.43-3.725 1.308-3.725 1.308zM95.076 57.054s-4.335 4.01-14.61 8.668c-10.984 4.98-22.45 8.91-33.546 13.643l-.644 5.94s8.35-4.813 20.39-7.544C78.7 75.03 86.885 73.378 90.9 72.52c4.016-.86 7.065-2.626 7.065-2.626l-2.89-12.838z" fill="#FFF"/><path d="M84.245 60.736c3.874-2.237 8.56-5.11 10.655-9.226 4.328-8.504-5.446-15.324-12.686-16.68-1.23-.228-10.463-1.398-10.805.698.335-2.08 2.627-3.01 3.728-4.612 1.726-2.506-.71-2.965-2.664-3.812-3.366-1.448-6.857-2.534-10.55-2.602-3.808-.068-6.987.36-9.84 3.166-.504.498-1.174 1.23-1.27 1.922-.283 2.05 3.812 2.685 4.982 1.954.686-.43 1.408-.795 2.143-1.125 2.1-.953 4.37-1.64 6.66-1.924 2.026-.25 4.123-.355 6.093.268.528.174 1.098.375 1.56.692.05.032.388.366.424.366h-3.305s-1.985 3.125-6.622 4.448c-4.637 1.325-10.866-1.323-10.866-1.323s-4.532-2.154-8.637-1.623c-4.103.53-5 0-5 0v1.953s-1.99-1.325-4.308-1.953c-2.32-.63-5.63-2.185-9.77-1.502-4.14.684-4.967.145-8.775-1.5-3.808-1.65-7.907-1.173-10.265 3.003-2.36 4.178.663 6.854.663 6.854l3.442.095c.757-.056 1.507-.092 2.21-.092.23-1.438.91-4.563 2.508-5.338 2.095-1.015 1.12 2.444 1.336 4.078.098.733.252 1.462.395 2.038 2.76 1.04 5.44 2.65 9.147 2.103 4.47-.665 9.272-3.762 13.578-1.385l.18.1c.417-.94 1.435-3 2.474-3.275 1.354-.353.11 1.865-.112 3.022-.097.518-.162 1.034-.205 1.454.463.25.92.5 1.378.732.288-1.104.842-2.77 1.662-3.166 1.26-.61.467 1.804.482 2.983 0 .432.03.865.06 1.235 2.168.926 4.31 1.462 6.496 1.11 4.14-.664 4.76-2.466 11.094.11 1.854.754 3.822 2.443 5.754 2.706.995.138 2.34.102 3.262-.323 1.406-.644.558-1.62-.72-1.545.383-.695 1.21-1.09 1.966-1.143 2.78-.193 3.732 3.593 4.66 5.56 1.388 2.947 1.1 6.193-.42 9.04C71.854 66.84 58.44 72.52 58.44 72.52s1.94-.613 9.937-4.138c5.362-2.367 10.787-4.72 15.868-7.646zM11.2 31c-1.708.515-3.252.404-3.45-.246-.194-.652 1.03-1.598 2.74-2.112 1.707-.514 3.25-.402 3.445.248.196.652-1.03 1.596-2.735 2.11z" fill="#439A46"/><path d="M66.207 70.14c-4.584-2.02-10.486-6.197-10.67-12.607-.153-5.518.27-16.21.395-19.08 1.54-.763 2.615-2.91 2.545-5.403-.086-3.09-1.892-5.545-4.03-5.486-2.14.06-3.804 2.615-3.717 5.704.086 3.043 1.838 5.465 3.936 5.48-.21 2.996-.69 14.055-.423 19.222.31 5.966 6.255 12.84 14.803 14.1 8.423 1.24 24.124.893 24.124.893l1.4-1.01c-.002-.002-23.78.207-28.363-1.812zm-14.34-36.938c-.058-2.103 1.01-3.84 2.388-3.88 1.38-.038 2.544 1.635 2.602 3.738.06 2.103-1.007 3.84-2.386 3.878-1.38.04-2.543-1.636-2.602-3.736z" fill="#3E295E"/></g></g></svg>